<mxfile host="app.diagrams.net" modified="2024-03-13T11:55:14.370Z" agent="Mozilla/5.0 (Windows NT 10.0; Win64; x64) AppleWebKit/537.36 (KHTML, like Gecko) Chrome/122.0.0.0 Safari/537.36" etag="no0LzqnlB54pKCLHFd_o" version="24.0.5" type="device">
  <diagram name="PÃ¡gina-1" id="86KTP7lDNpJAnV5SCoPR">
    <mxGraphModel dx="1646" dy="782" grid="1" gridSize="10" guides="1" tooltips="1" connect="1" arrows="1" fold="1" page="1" pageScale="1" pageWidth="827" pageHeight="1169" math="0" shadow="0">
      <root>
        <mxCell id="0" />
        <mxCell id="1" parent="0" />
        <mxCell id="lHNbEJBgpMMY8oi14mFJ-1" value="" style="rounded=0;whiteSpace=wrap;html=1;fillColor=#d5e8d4;strokeColor=#82b366;gradientColor=#97d077;" vertex="1" parent="1">
          <mxGeometry x="60" y="80" width="741" height="490" as="geometry" />
        </mxCell>
        <mxCell id="lHNbEJBgpMMY8oi14mFJ-4" value="" style="rounded=0;whiteSpace=wrap;html=1;fillColor=#6d8764;strokeColor=#3A5431;fontColor=#ffffff;" vertex="1" parent="1">
          <mxGeometry x="60" y="80" width="740" height="120" as="geometry" />
        </mxCell>
        <mxCell id="lHNbEJBgpMMY8oi14mFJ-5" value="IMAGEM" style="rounded=1;whiteSpace=wrap;html=1;" vertex="1" parent="1">
          <mxGeometry x="620" y="85" width="140" height="105" as="geometry" />
        </mxCell>
        <mxCell id="lHNbEJBgpMMY8oi14mFJ-7" value="NOME" style="rounded=0;whiteSpace=wrap;html=1;" vertex="1" parent="1">
          <mxGeometry x="120" y="115" width="370" height="50" as="geometry" />
        </mxCell>
        <mxCell id="lHNbEJBgpMMY8oi14mFJ-8" value="" style="rounded=0;whiteSpace=wrap;html=1;fillColor=#d5e8d4;strokeColor=#82b366;" vertex="1" parent="1">
          <mxGeometry x="61" y="200" width="740" height="60" as="geometry" />
        </mxCell>
        <mxCell id="lHNbEJBgpMMY8oi14mFJ-9" value="MENU" style="rounded=1;whiteSpace=wrap;html=1;" vertex="1" parent="1">
          <mxGeometry x="200" y="205" width="120" height="50" as="geometry" />
        </mxCell>
        <mxCell id="lHNbEJBgpMMY8oi14mFJ-10" value="MENU" style="rounded=1;whiteSpace=wrap;html=1;" vertex="1" parent="1">
          <mxGeometry x="380" y="205" width="120" height="50" as="geometry" />
        </mxCell>
        <mxCell id="lHNbEJBgpMMY8oi14mFJ-11" value="MENU" style="rounded=1;whiteSpace=wrap;html=1;" vertex="1" parent="1">
          <mxGeometry x="550" y="205" width="120" height="50" as="geometry" />
        </mxCell>
        <mxCell id="lHNbEJBgpMMY8oi14mFJ-12" value="" style="rounded=0;whiteSpace=wrap;html=1;fillColor=#f5f5f5;fontColor=#333333;strokeColor=#666666;" vertex="1" parent="1">
          <mxGeometry x="60" y="260" width="740" height="260" as="geometry" />
        </mxCell>
        <mxCell id="lHNbEJBgpMMY8oi14mFJ-13" value="CONTATO" style="rounded=1;whiteSpace=wrap;html=1;" vertex="1" parent="1">
          <mxGeometry x="300" y="520" width="52.5" height="50" as="geometry" />
        </mxCell>
        <mxCell id="lHNbEJBgpMMY8oi14mFJ-14" value="CONTATO" style="rounded=1;whiteSpace=wrap;html=1;" vertex="1" parent="1">
          <mxGeometry x="404.75" y="520" width="52.5" height="50" as="geometry" />
        </mxCell>
        <mxCell id="lHNbEJBgpMMY8oi14mFJ-15" value="CONTATO" style="rounded=1;whiteSpace=wrap;html=1;" vertex="1" parent="1">
          <mxGeometry x="500" y="520" width="52.5" height="50" as="geometry" />
        </mxCell>
        <mxCell id="lHNbEJBgpMMY8oi14mFJ-17" value="TEXTO" style="rounded=0;whiteSpace=wrap;html=1;" vertex="1" parent="1">
          <mxGeometry x="80" y="280" width="350" height="220" as="geometry" />
        </mxCell>
        <mxCell id="lHNbEJBgpMMY8oi14mFJ-18" value="TABELA" style="rounded=0;whiteSpace=wrap;html=1;" vertex="1" parent="1">
          <mxGeometry x="490" y="280" width="270" height="140" as="geometry" />
        </mxCell>
      </root>
    </mxGraphModel>
  </diagram>
</mxfile>
